<?xml version="1.0" standalone="no"?>
<!DOCTYPE svg PUBLIC "-//W3C//DTD SVG 20010904//EN"
 "http://www.w3.org/TR/2001/REC-SVG-20010904/DTD/svg10.dtd">
<svg version="1.0" xmlns="http://www.w3.org/2000/svg"
 width="512.000000pt" height="512.000000pt" viewBox="0 0 512.000000 512.000000"
 preserveAspectRatio="xMidYMid meet">
<metadata>
Created by potrace 1.14, written by Peter Selinger 2001-2017
</metadata>
<g transform="translate(0.000000,512.000000) scale(0.100000,-0.100000)"
fill="#000000" stroke="none">
<path d="M2379 5116 c-2 -2 -38 -6 -79 -10 -64 -6 -210 -29 -315 -51 -70 -14
-272 -75 -330 -100 -16 -7 -55 -23 -85 -35 -365 -149 -698 -396 -984 -730
-281 -329 -505 -835 -561 -1270 -4 -30 -9 -68 -12 -85 -11 -77 -10 -477 2
-565 51 -377 161 -709 326 -985 10 -16 27 -46 38 -65 19 -36 131 -195 166
-239 162 -198 306 -337 489 -475 321 -240 732 -415 1112 -471 22 -4 50 -8 64
-11 144 -26 530 -26 708 1 75 12 90 14 142 25 30 6 66 13 80 16 193 37 522
170 735 299 545 328 945 839 1134 1452 18 56 34 113 37 128 3 15 11 55 19 89
40 170 54 330 50 566 -2 118 -6 224 -8 235 -3 11 -8 45 -12 75 -3 30 -13 89
-22 130 -8 41 -17 86 -19 100 -11 53 -56 203 -88 292 -113 310 -272 577 -491
827 -234 268 -619 541 -945 671 -196 79 -432 142 -620 166 -25 3 -56 8 -70 10
-29 6 -456 15 -461 10z"/>
</g>
</svg>
